<?xml version="1.0" encoding="utf-8"?>
<!-- Generator: Adobe Illustrator 25.0.0, SVG Export Plug-In . SVG Version: 6.00 Build 0)  -->
<svg version="1.1" id="Layer_1" xmlns="http://www.w3.org/2000/svg" xmlns:xlink="http://www.w3.org/1999/xlink" x="0px" y="0px"
	 viewBox="0 0 200 48" style="enable-background:new 0 0 200 48;" xml:space="preserve">
<style type="text/css">
	.st0{fill:#212322;}
	.st1{fill:#EE2A28;}
</style>
<path class="st0" d="M86,38H76V20.2c0-2.4-0.3-4.1-1.5-4.1c-1.2,0-1.5,1.7-1.5,4.1V38h-9V20.2c0-2.4-0.3-4.1-1.5-4.1
	S61,17.8,61,20.2V38h-9V11h9v2.8c1.2-2,3.3-3.3,6-3.3c2.6,0,4.8,0.9,6.2,3.6c1.2-2.4,3.5-3.6,6.1-3.6c3.6,0,6.8,2.3,6.8,8.2L86,38
	L86,38z M39,24c-1.3,1-3.1,2.1-3.1,5.4c0,2.2,0.6,3.1,1.6,3.1s1.6-0.9,1.6-3.1L39,24L39,24z M37,10.3c6.4,0,11,2.2,11,9V38h-9v-2.4
	c-1,1.6-2.7,2.9-5.5,2.9c-1.9,0-6.4-0.7-6.4-7.8c0-9.7,11.9-6.4,11.9-12.2c0-2.4-0.5-3.4-1.5-3.4c-1,0-1.5,1-1.5,3.4V20H26v-0.7
	C26,12.4,30.6,10.3,37,10.3z M101.7,27h9.2c-0.1,7.3-4.7,10.5-11,10.5c-6.4,0-11-3.3-11-10.8v-4.3c0-7.5,4.6-10.8,11-10.8
	c6.4,0,11,3.3,11,10.8V25H98v4.2c0.2,2.4,0.5,4.1,2,4.1c1.5,0,1.8-1.7,2-4.1V27H101.7z M101.3,19c0-2.5-0.3-4.2-1.6-4.2
	c-1.3,0-1.6,1.7-1.7,4.1V20h3v-1H101.3z M23,16v-1.3c0-9.3-5.5-11.8-11.5-11.8C5.5,2.9,0,6.2,0,15.4v9.5c0,6.2,2.6,12.5,9.7,12.5
	c3.2,0,5.3-1.6,6.2-3l0.7,2.6H23V20H12v6h3v0.7c-0.4,2.9-0.8,5.7-2.6,5.7c-1.9,0-2.4-5.7-2.4-5.7V14c0-2.9,0.2-5.5,1.5-5.5
	S13,11.1,13,14v2H23z M126,14h9v-1.5c0-6.8-4.6-9.9-11.4-9.9c-6.5,0-11.4,3.6-11.4,10c0,11.9,13.5,9.3,13.5,17.3
	c0,2.1-0.8,2.8-1.9,2.8c-1,0-1.9-0.7-1.9-2.8V27h-9v1.4c0,7.2,4.7,10.3,11.6,10.3c6.7,0,11.6-3.7,11.6-10.4
	c0-13.2-13.8-9.6-13.8-16.9c0-2.1,0.9-2.8,1.8-2.8c0.9,0,1.8,0.7,1.8,2.8V14z M173,19.2c0-2.3-0.3-3.9-1.5-3.9
	c-1.2,0-1.5,1.7-1.5,3.9V29c0,2.3,0.3,3.9,1.5,3.9c1.2,0,1.5-1.7,1.5-3.9V19.2z M171,10.1c6.4,0,11,3.6,11,11.7v4.7
	c0,8.1-4.6,11.7-11,11.7c-6.4,0-11-3.6-11-11.7v-4.7C160,13.6,164.6,10.1,171,10.1z M149,19.2c0-2.3-0.3-4-1.5-4
	c-1.2,0-1.5,1.7-1.5,4v8.1c0,2.3,0.3,4,1.5,4c1.2,0,1.5-1.7,1.5-4V19.2z M151.7,9.5c4.6,0,7.3,3.6,7.3,11.7v4.7
	c0,8.1-2.7,11.7-7.3,11.7c-2.2,0-4.5-1.1-5.7-2.9V44h-9V10h9v2.4C147.2,10.5,149.5,9.5,151.7,9.5z M198,37v-3.6
	c-0.4,0.3-0.8,0.4-1.2,0.4c-1.5,0-1.8-1.5-1.8-3.2V14h3v-4h-3V7h-9v3h-3v4h3v16.7c0,4.8,2.5,7.3,6.8,7.3C195,38,196.8,37.5,198,37z"
	/>
<g>
	<path class="st1" d="M126,14h9v-1.5c0-6.8-4.6-9.9-11.4-9.9c-6.5,0-11.4,3.6-11.4,10c0,11.9,13.5,9.3,13.5,17.3
		c0,2.1-0.8,2.8-1.9,2.8c-1,0-1.9-0.7-1.9-2.8V27h-9v1.4c0,7.2,4.7,10.3,11.6,10.3c6.7,0,11.6-3.7,11.6-10.4
		c0-13.2-13.8-9.6-13.8-16.9c0-2.1,0.9-2.8,1.8-2.8c0.9,0,1.8,0.7,1.8,2.8V14z"/>
	<path class="st1" d="M171,10.1c-6.4,0-11,3.6-11,11.7v4.7c0,8.2,4.6,11.7,11,11.7c6.4,0,11-3.6,11-11.7v-4.7
		C182,13.7,177.4,10.1,171,10.1z M173,29.1c0,2.3-0.3,3.9-1.5,3.9c-1.3,0-1.5-1.7-1.5-3.9v-9.8c0-2.3,0.3-3.9,1.5-3.9
		c1.2,0,1.5,1.7,1.5,3.9V29.1z"/>
	<path class="st1" d="M151.7,9.5c-2.2,0-4.5,1.1-5.7,2.9V10h-9v34h9v-9.2c1.2,1.8,3.5,2.9,5.7,2.9c4.6,0,7.3-3.6,7.3-11.7v-4.7
		C159,13.1,156.4,9.5,151.7,9.5z M149,27.3c0,2.3-0.3,4-1.5,4c-1.2,0-1.5-1.7-1.5-4v-8.1c0-2.3,0.3-4,1.5-4c1.2,0,1.5,1.7,1.5,4
		V27.3z"/>
	<path class="st1" d="M198,37v-3.6c-0.4,0.3-0.8,0.4-1.2,0.4c-1.5,0-1.8-1.5-1.8-3.2V14h3v-4h-3V7h-9v3h-3v4h3v16.7
		c0,4.8,2.5,7.3,6.8,7.3C195,38,196.8,37.5,198,37z"/>
</g>
</svg>
