<?xml version="1.0" standalone="no"?>
<!DOCTYPE svg PUBLIC "-//W3C//DTD SVG 20010904//EN"
 "http://www.w3.org/TR/2001/REC-SVG-20010904/DTD/svg10.dtd">
<svg version="1.0" xmlns="http://www.w3.org/2000/svg"
 width="512.000000pt" height="512.000000pt" viewBox="0 0 512.000000 512.000000"
 preserveAspectRatio="xMidYMid meet">
<metadata>
Created by potrace 1.14, written by Peter Selinger 2001-2017
</metadata>
<g transform="translate(0.000000,512.000000) scale(0.100000,-0.100000)"
fill="#000000" stroke="none">
<path d="M2335 5109 c-111 -11 -190 -21 -195 -24 -3 -2 -26 -6 -50 -10 -106
-15 -367 -90 -450 -128 -25 -11 -50 -22 -56 -23 -6 -1 -42 -16 -80 -34 -38
-18 -84 -39 -101 -46 -18 -8 -33 -19 -33 -26 0 -6 -3 -8 -6 -5 -7 7 -29 -3
-89 -42 -22 -14 -43 -25 -47 -26 -4 0 -17 -8 -28 -17 -11 -10 -25 -18 -30 -18
-6 0 -10 -4 -10 -10 0 -5 -6 -10 -13 -10 -8 0 -22 -9 -32 -20 -10 -11 -20 -18
-22 -16 -2 2 -14 -5 -26 -15 -12 -10 -52 -41 -89 -69 -106 -79 -259 -224 -348
-329 -25 -30 -49 -59 -55 -65 -28 -32 -85 -105 -85 -110 0 -5 -50 -74 -83
-116 -7 -8 -12 -18 -12 -22 0 -4 -8 -17 -18 -28 -9 -11 -17 -27 -17 -35 0 -8
-4 -15 -8 -15 -8 0 -24 -27 -32 -55 -2 -5 -10 -16 -17 -23 -7 -8 -11 -18 -8
-23 4 -5 1 -9 -5 -9 -6 0 -8 -4 -5 -10 3 -5 2 -10 -3 -10 -7 0 -61 -105 -67
-130 -1 -3 -9 -23 -19 -45 -10 -22 -19 -44 -20 -50 -2 -5 -9 -23 -15 -40 -7
-16 -14 -37 -16 -45 -2 -8 -10 -33 -19 -55 -9 -22 -17 -49 -19 -60 -2 -11 -7
-27 -10 -35 -14 -34 -55 -221 -72 -330 -20 -132 -27 -452 -13 -620 9 -98 31
-237 54 -330 9 -36 17 -69 18 -75 6 -24 27 -101 33 -115 3 -8 7 -22 9 -30 2
-9 11 -34 20 -55 10 -22 18 -45 20 -51 13 -68 215 -464 237 -464 5 0 5 -4 2
-10 -3 -5 -2 -10 3 -10 5 0 15 -13 22 -30 7 -16 17 -30 22 -30 5 0 11 -8 15
-17 5 -15 57 -88 73 -103 3 -3 21 -25 40 -50 101 -132 290 -312 455 -434 125
-92 138 -101 165 -113 8 -4 17 -9 20 -12 3 -3 16 -12 29 -19 13 -8 40 -23 60
-34 130 -74 334 -162 466 -203 33 -10 69 -21 80 -26 27 -10 145 -38 192 -45
21 -3 45 -7 55 -10 128 -37 547 -51 753 -25 184 23 412 76 545 126 25 9 66 23
93 32 26 8 47 18 47 22 0 4 7 8 15 8 21 0 285 134 285 145 0 5 4 7 9 3 5 -3
16 2 24 10 9 8 20 15 25 15 5 0 15 7 22 15 7 8 16 12 21 9 5 -3 9 -1 9 4 0 5
24 24 53 42 28 19 57 38 62 42 6 5 35 27 65 50 30 23 62 50 71 60 9 10 20 18
24 18 12 0 239 231 300 305 78 96 81 100 102 132 10 15 26 37 35 47 10 11 24
32 30 48 7 15 16 28 20 28 5 0 8 7 8 15 0 7 8 19 18 24 9 6 13 11 9 11 -5 0 1
12 12 26 12 15 21 33 21 40 0 8 5 14 11 14 5 0 8 4 4 9 -3 5 -1 12 4 15 12 8
87 158 83 168 -1 5 3 8 8 8 6 0 10 8 10 18 0 10 4 22 9 27 11 13 47 108 43
118 -1 4 3 7 10 7 6 0 9 3 5 6 -3 4 0 19 9 35 8 16 14 30 13 31 -1 2 8 35 19
73 72 243 106 480 106 740 0 109 -12 313 -18 324 -2 3 -7 29 -10 56 -10 80
-36 203 -62 296 -32 118 -95 292 -108 301 -6 4 -7 8 -3 8 5 0 2 12 -6 28 -8
15 -34 68 -58 117 -47 97 -86 166 -131 232 -15 23 -28 44 -28 48 0 6 -12 23
-42 55 -9 10 -14 21 -11 24 4 3 1 6 -5 6 -7 0 -12 5 -12 10 0 6 -15 27 -32 46
-18 20 -37 43 -42 52 -35 62 -361 381 -424 416 -10 5 -19 12 -22 15 -8 10
-119 91 -124 91 -2 0 -32 18 -65 40 -72 48 -251 144 -251 135 0 -4 -7 1 -16 9
-8 9 -24 16 -35 16 -10 0 -19 4 -19 10 0 5 -15 13 -32 19 -18 5 -61 21 -95 34
-35 14 -63 23 -63 20 0 -3 -6 -1 -12 4 -7 5 -33 15 -58 23 -25 7 -63 19 -86
26 -58 18 -268 61 -344 70 -36 4 -74 9 -85 10 -46 8 -415 10 -480 3z"/>
</g>
</svg>
